<?xml version="1.0" encoding="UTF-8" ?>
<svg version="1.1" width="37" height="6" xmlns="http://www.w3.org/2000/svg" shape-rendering="crispEdges">
<rect x="0" y="0" width="1" height="6" fill="#FFFFFF" />
<rect x="5" y="0" width="2" height="1" fill="#FFFFFF" />
<rect x="10" y="0" width="2" height="1" fill="#FFFFFF" />
<rect x="14" y="0" width="3" height="1" fill="#FFFFFF" />
<rect x="19" y="0" width="1" height="6" fill="#FFFFFF" />
<rect x="21" y="0" width="2" height="1" fill="#FFFFFF" />
<rect x="25" y="0" width="1" height="6" fill="#FFFFFF" />
<rect x="27" y="0" width="3" height="1" fill="#FFFFFF" />
<rect x="4" y="1" width="1" height="4" fill="#FFFFFF" />
<rect x="7" y="1" width="1" height="4" fill="#FFFFFF" />
<rect x="9" y="1" width="1" height="5" fill="#FFFFFF" />
<rect x="12" y="1" width="1" height="5" fill="#FFFFFF" />
<rect x="14" y="1" width="1" height="5" fill="#FFFFFF" />
<rect x="17" y="1" width="1" height="4" fill="#FFFFFF" />
<rect x="21" y="1" width="1" height="5" fill="#FFFFFF" />
<rect x="23" y="1" width="1" height="2" fill="#FFFFFF" />
<rect x="27" y="1" width="1" height="5" fill="#FFFFFF" />
<rect x="29" y="2" width="2" height="1" fill="#FFFFFF" />
<rect x="10" y="3" width="2" height="1" fill="#FFFFFF" />
<rect x="24" y="3" width="1" height="2" fill="#FFFFFF" />
<rect x="30" y="3" width="1" height="3" fill="#FFFFFF" />
<rect x="1" y="5" width="2" height="1" fill="#FFFFFF" />
<rect x="5" y="5" width="2" height="1" fill="#FFFFFF" />
<rect x="15" y="5" width="2" height="1" fill="#FFFFFF" />
<rect x="28" y="5" width="2" height="1" fill="#FFFFFF" />
<rect x="32" y="5" width="1" height="1" fill="#FFFFFF" />
<rect x="34" y="5" width="1" height="1" fill="#FFFFFF" />
<rect x="36" y="5" width="1" height="1" fill="#FFFFFF" />
</svg>