<?xml version="1.0" encoding="UTF-8" ?>
<svg version="1.1" width="31" height="11" xmlns="http://www.w3.org/2000/svg" shape-rendering="crispEdges">
<rect x="2" y="0" width="27" height="1" fill="#FFFFFF" />
<rect x="1" y="1" width="2" height="1" fill="#FFFFFF" />
<rect x="3" y="1" width="1" height="1" fill="#D2B5FF" />
<rect x="4" y="1" width="2" height="1" fill="#FFFFFF" />
<rect x="6" y="1" width="22" height="1" fill="#D2B5FF" />
<rect x="28" y="1" width="2" height="1" fill="#FFFFFF" />
<rect x="0" y="2" width="2" height="1" fill="#FFFFFF" />
<rect x="2" y="2" width="1" height="1" fill="#D2B5FF" />
<rect x="3" y="2" width="1" height="1" fill="#FFFFFF" />
<rect x="4" y="2" width="24" height="5" fill="#A56FF9" />
<rect x="28" y="2" width="1" height="1" fill="#D2B5FF" />
<rect x="29" y="2" width="2" height="1" fill="#FFFFFF" />
<rect x="0" y="3" width="1" height="6" fill="#FFFFFF" />
<rect x="1" y="3" width="1" height="1" fill="#D2B5FF" />
<rect x="2" y="3" width="1" height="1" fill="#FFFFFF" />
<rect x="3" y="3" width="1" height="5" fill="#A56FF9" />
<rect x="28" y="3" width="1" height="3" fill="#A56FF9" />
<rect x="29" y="3" width="1" height="5" fill="#9261DE" />
<rect x="30" y="3" width="1" height="6" fill="#FFFFFF" />
<rect x="1" y="4" width="1" height="4" fill="#9261DE" />
<rect x="2" y="4" width="1" height="2" fill="#A56FF9" />
<rect x="2" y="6" width="1" height="3" fill="#9261DE" />
<rect x="28" y="6" width="1" height="3" fill="#9261DE" />
<rect x="4" y="7" width="23" height="1" fill="#A56FF9" />
<rect x="27" y="7" width="1" height="1" fill="#F1DFFF" />
<rect x="1" y="8" width="1" height="2" fill="#FFFFFF" />
<rect x="3" y="8" width="1" height="2" fill="#9261DE" />
<rect x="4" y="8" width="21" height="1" fill="#A56FF9" />
<rect x="25" y="8" width="2" height="1" fill="#F1DFFF" />
<rect x="27" y="8" width="1" height="2" fill="#9261DE" />
<rect x="29" y="8" width="1" height="2" fill="#FFFFFF" />
<rect x="2" y="9" width="1" height="2" fill="#FFFFFF" />
<rect x="4" y="9" width="23" height="1" fill="#9261DE" />
<rect x="28" y="9" width="1" height="2" fill="#FFFFFF" />
<rect x="3" y="10" width="25" height="1" fill="#FFFFFF" />
</svg>