<svg width="60" height="60" viewBox="0 0 60 60" fill="none" xmlns="http://www.w3.org/2000/svg">
<path d="M41.8284 2.74501H38.3671L41.9666 6.65111V8.51064H34.5529V6.3333H38.152L34.5529 2.4272V0.565796H41.8284V2.74501ZM33.0829 2.74501H29.6216L33.2212 6.65111V8.51064H25.807V6.3333H29.4065L25.807 2.4272V0.565796H33.0829V2.74501ZM24.4232 2.83408H20.6882V6.24236H24.4232V8.51064H18.0332V0.565796H24.4232V2.83408Z" fill="white"/>
<path d="M12.9437 54.7059L9.14819 12.1373H50.8515L47.0527 54.6989L29.9743 59.4342L12.9437 54.7059Z" fill="#1572B6"/>
<path d="M30.0005 55.815L43.8 51.9891L47.0466 15.6183H30.0005V55.815Z" fill="#33A9DC"/>
<path d="M30 31.0407H36.9084L37.3861 25.6946H30V20.4736H43.0917L42.9666 21.8743L41.6836 36.2611H30V31.0407Z" fill="white"/>
<path d="M30.0315 44.5997L30.0085 44.6063L24.1941 43.036L23.8219 38.8721H18.5818L19.3135 47.0696L30.0076 50.0382L30.0319 50.0311L30.0315 44.5997Z" fill="#EBEBEB"/>
<path d="M36.4651 36.0403L35.836 43.0322L30.0132 44.6039V50.0357L40.7162 47.0695L40.7949 46.1873L41.7033 36.0403H36.4651Z" fill="white"/>
<path d="M30.0183 20.4736V25.6941H17.4075L17.3025 24.5208L17.0649 21.8743L16.9397 20.4736H30.0183ZM30 31.0411V36.2621H24.2592L24.1547 35.0888L23.9166 32.4418L23.7914 31.0411H30Z" fill="#EBEBEB"/>
</svg>
