<svg width="60" height="60" viewBox="0 0 60 60" fill="none" xmlns="http://www.w3.org/2000/svg">
<g clip-path="url(#clip0_354_33104)">
<path d="M26.6311 59.8059C25.7391 59.6995 24.8034 59.5622 24.5527 59.5003C24.1836 59.4128 23.8124 59.3347 23.4394 59.2659C23.0134 59.1833 22.5907 59.0844 22.1723 58.9692C20.2294 58.4123 20.0902 58.3669 18.6253 57.7678C17.2777 57.2184 14.7947 55.935 13.9453 55.3509C13.7128 55.1897 13.4953 55.0598 13.462 55.0598C13.4292 55.0598 12.8855 54.6773 12.2536 54.21C8.23641 51.2367 5.22047 47.6273 3.04125 43.1817C2.66625 42.4181 2.36016 41.7408 2.36016 41.677C2.36016 41.6142 2.29266 41.4403 2.21016 41.2941C2.04 40.9898 1.79766 40.3345 1.60219 39.6572C1.51814 39.3694 1.42038 39.0858 1.30922 38.8073C1.21781 38.5917 1.14422 38.3292 1.14422 38.2233C1.14422 38.1169 1.05281 37.7709 0.94125 37.4522C0.829687 37.1358 0.739688 36.7622 0.739688 36.6225C0.739688 36.4837 0.652031 36.0037 0.54375 35.5556C0.280313 34.4494 0 31.5839 0 29.978C0 28.3739 0.280313 25.5084 0.54375 24.4027C0.651563 23.9541 0.739688 23.4652 0.739688 23.3152C0.739688 23.1647 0.807656 22.8698 0.889687 22.6589C0.974063 22.4489 1.08187 22.0716 1.13156 21.8208C1.18313 21.57 1.30031 21.1378 1.39547 20.8575L1.67203 20.0484C1.875 19.4423 2.06344 18.9295 2.15344 18.7298C2.205 18.6183 2.40609 18.1627 2.60203 17.7173C2.91891 16.9978 3.59812 15.6408 3.99516 14.9306C4.14 14.6705 4.19484 14.5842 4.97859 13.3594C6.22031 11.415 8.34234 8.99578 10.3177 7.27125C11.0138 6.66328 13.3392 4.89796 13.4438 4.89796C13.4728 4.89796 13.6922 4.76625 13.9327 4.605C14.5641 4.18218 15.1833 3.82312 15.9905 3.41859C16.2802 3.27529 16.5672 3.12635 16.8511 2.97187C16.9847 2.89499 17.2355 2.77968 18.5231 2.20312C18.8067 2.07656 19.1123 1.96125 19.9931 1.65328C20.1872 1.58578 20.5772 1.44281 20.8556 1.33828C21.1359 1.23421 21.4655 1.14796 21.5883 1.14796C21.7092 1.14796 22.0275 1.06359 22.2952 0.959526C22.5623 0.854995 23.0475 0.735933 23.3752 0.69562C23.7014 0.657183 24.135 0.565776 24.3384 0.494058C24.54 0.424683 25.0931 0.334683 25.567 0.294839C26.1847 0.239035 26.8007 0.166352 27.4144 0.0768701C28.6744 -0.107817 31.4138 -0.107817 32.6606 0.0768701C33.2495 0.161383 33.8405 0.230937 34.433 0.285464C34.8797 0.322495 35.4492 0.415776 35.7 0.492651C35.9508 0.567651 36.3848 0.661401 36.6633 0.69562C36.9417 0.732651 37.4105 0.847964 37.7048 0.953901C38.0002 1.06171 38.3348 1.14796 38.4502 1.14796C38.5655 1.14796 38.8036 1.21218 38.9775 1.29281C39.1533 1.37156 39.525 1.50328 39.8053 1.58578C40.0837 1.67015 40.5614 1.83656 40.8694 1.95937C41.175 2.08171 41.5852 2.24296 41.7811 2.31609C42.142 2.45203 44.8092 3.78656 45.172 4.0139C48.1162 5.85 49.6308 7.04953 51.667 9.15328C54.1223 11.6911 55.7522 14.108 57.4111 17.6658C57.5283 17.917 57.7073 18.2887 57.81 18.4898C57.9108 18.6933 57.9952 18.9314 57.9952 19.0195C57.9952 19.1086 58.0795 19.3758 58.1836 19.6144C58.4658 20.2627 58.7072 21.0005 58.8211 21.5644C58.8773 21.8409 58.9819 22.1831 59.0531 22.3242C59.1248 22.4648 59.2088 22.8225 59.242 23.1155C59.2748 23.408 59.3719 23.888 59.4544 24.1791C59.9325 25.8342 60.1702 30.7106 59.8809 32.8673C59.7952 33.5081 59.6981 34.283 59.6653 34.5886C59.61 35.1122 59.3334 36.4655 59.0972 37.3753L58.8534 38.3386C58.3941 40.1934 57.2588 42.8358 55.8727 45.2803C55.3233 46.2506 53.4816 48.8747 53.1337 49.1822C53.1023 49.2094 52.9467 49.3931 52.7892 49.5867C52.6317 49.7827 52.1264 50.3302 51.6689 50.8027C49.6528 52.8844 48.0267 54.1716 45.172 55.9444C44.8336 56.1548 41.9625 57.5573 41.4258 57.7753C41.1473 57.8869 40.6823 58.0753 40.3931 58.1925C40.1058 58.3083 39.7852 58.4053 39.6844 58.4072C39.5836 58.4086 39.3183 58.4986 39.0947 58.6064C38.8716 58.7142 38.5875 58.8042 38.4614 58.8061C38.3367 58.808 37.9725 58.8961 37.6519 59.002C37.3317 59.1098 36.8864 59.2256 36.6628 59.2598C36.4397 59.295 35.962 59.3902 35.5992 59.4708C35.2369 59.5514 34.1414 59.7089 33.1678 59.8205C30.996 60.0738 28.8018 60.0689 26.6311 59.8059ZM28.8356 53.9466C28.9762 53.8369 29.1211 53.6184 29.1595 53.4651C29.2439 53.1262 42.863 25.823 43.1194 25.4808C43.3355 25.1916 43.3556 24.7284 43.1578 24.5653C43.0537 24.4777 41.7497 24.45 38.2687 24.4556C35.6578 24.4612 33.4627 24.4631 33.3909 24.4612C33.285 24.4575 33.263 22.7128 33.2738 15.24C33.2812 10.1695 33.2573 5.97468 33.2208 5.91656C33.1842 5.8575 33.0413 5.81015 32.902 5.81015C32.7061 5.81015 32.6147 5.89453 32.4942 6.1889C32.2669 6.7364 31.6388 7.97953 28.5811 13.9162C27.946 15.1483 27.3124 16.3811 26.6803 17.6147C26.1384 18.675 25.2834 20.3395 24.7833 21.3131C23.437 23.9303 22.0936 26.5489 20.753 29.1689C18.4406 33.6858 18.1608 34.2244 18.0614 34.3434C17.8692 34.5759 17.7647 35.1122 17.873 35.3137C17.9714 35.4984 18.1678 35.5059 23.0494 35.4984C25.8398 35.4952 28.1414 35.5097 28.1653 35.5312C28.2295 35.5973 28.2056 53.0203 28.1395 53.4356C28.0959 53.7084 28.125 53.8528 28.2497 53.9775C28.4653 54.1936 28.5244 54.1917 28.8356 53.9466Z" fill="#049688"/>
</g>
<defs>
<clipPath id="clip0_354_33104">
<rect width="60" height="60" fill="white"/>
</clipPath>
</defs>
</svg>
