<svg width="60" height="60" viewBox="0 0 60 60" fill="none" xmlns="http://www.w3.org/2000/svg">
<g clip-path="url(#clip0_354_33236)">
<path d="M58.4705 27.3647L32.6349 1.53004C31.148 0.0422315 28.7349 0.0422315 27.2456 1.53004L21.8813 6.89536L28.6866 13.7007C30.2686 13.1668 32.0817 13.5249 33.3422 14.7854C34.6092 16.0538 34.9645 17.8824 34.4175 19.4696L40.9763 26.0288C42.563 25.4818 44.3944 25.8352 45.6609 27.1046C47.4328 28.875 47.4328 31.7452 45.6609 33.5166C45.2399 33.9379 44.7399 34.2721 44.1897 34.5001C43.6394 34.7281 43.0496 34.8454 42.454 34.8454C41.8584 34.8454 41.2686 34.7281 40.7183 34.5001C40.1681 34.2721 39.6681 33.9379 39.247 33.5166C38.6144 32.8836 38.1832 32.0776 38.0076 31.2C37.832 30.3225 37.9199 29.4126 38.2603 28.5849L32.1441 22.4686L32.1431 38.566C32.5869 38.7845 32.9921 39.0739 33.3427 39.4229C35.1136 41.1933 35.1136 44.0625 33.3427 45.8368C31.5713 47.6072 28.7002 47.6072 26.9306 45.8368C25.1597 44.063 25.1597 41.1938 26.9306 39.4229C27.3549 38.9979 27.8596 38.6617 28.4152 38.4338V22.1874C27.8591 21.9601 27.3543 21.6237 26.9306 21.1979C25.5891 19.8572 25.2661 17.8885 25.9542 16.2404L19.245 9.53114L1.53001 27.2452C0.815311 27.9601 0.413818 28.9296 0.413818 29.9405C0.413818 30.9514 0.815311 31.9209 1.53001 32.6358L27.3661 58.4705C28.8539 59.9583 31.2661 59.9583 32.7563 58.4705L58.4709 32.7558C59.1855 32.0407 59.5868 31.0711 59.5867 30.0602C59.5867 29.0493 59.1852 28.0797 58.4705 27.3647Z" fill="#F34F29"/>
</g>
<defs>
<clipPath id="clip0_354_33236">
<rect width="60" height="60" fill="white"/>
</clipPath>
</defs>
</svg>
