<svg width="60" height="60" viewBox="0 0 60 60" fill="none" xmlns="http://www.w3.org/2000/svg">
<path d="M13.0565 54.5409L9.28638 12.2545H50.7136L46.9397 54.5344L29.9747 59.2373L13.0565 54.5409Z" fill="#E44D26"/>
<path d="M30 55.6425L43.7081 51.8419L46.9336 15.7125H30V55.6425Z" fill="#F16529"/>
<path d="M29.9999 31.396H23.1369L22.6635 26.0846H29.9999V20.8983H16.9954L17.1191 22.29L18.3941 36.5818H29.9999V31.396ZM29.9999 44.8646L29.9769 44.8707L24.2015 43.3107L23.8321 39.1749H18.6257L19.3522 47.318L29.976 50.2674L29.9999 50.2603V44.8646Z" fill="#EBEBEB"/>
<path d="M13.1409 0.762695H15.7762V3.36707H18.1874V0.762695H20.8232V8.64801H18.1874V6.00754H15.7767V8.64801H13.1409V0.762695ZM24.2887 3.37785H21.9684V0.762695H29.2457V3.37785H26.9245V8.64801H24.2887V3.37785ZM30.4007 0.762695H33.1485L34.8393 3.53348L36.5282 0.762695H39.2774V8.64801H36.652V4.73957L34.8393 7.54316H34.7934L32.9793 4.73957V8.64801H30.4002V0.762695H30.4007ZM40.5895 0.762695H43.2257V6.04176H46.9321V8.64848H40.5895V0.762695Z" fill="white"/>
<path d="M29.9822 31.396V36.5818H36.3684L35.7666 43.3078L29.9822 44.8693V50.2646L40.6144 47.318L40.6922 46.4414L41.9109 32.7882L42.0375 31.396H40.6397H29.9822ZM29.9822 20.8983V26.0846H42.5095L42.6131 24.9188L42.8498 22.29L42.9741 20.8983H29.9822Z" fill="white"/>
</svg>
