<svg width="60" height="60" viewBox="0 0 60 60" fill="none" xmlns="http://www.w3.org/2000/svg">
<g clip-path="url(#clip0_354_33253)">
<path d="M10.6406 0.75H49.4062C55.2656 0.75 60.0469 5.48437 60.0469 11.3906V48.6563C60.0469 54.5156 55.3125 59.2969 49.4062 59.2969H10.6406C4.73438 59.25 0 54.5156 0 48.6094V11.3906C0 5.48437 4.73438 0.75 10.6406 0.75Z" fill="#330000"/>
<path d="M29.0156 35.7656H19.6875L17.8125 41.625C17.7656 41.8594 17.5781 42 17.3437 41.9531H12.6562C12.375 41.9531 12.3281 41.8125 12.375 41.4844L20.4375 18.3281C20.5312 18.0937 20.5781 17.8125 20.6718 17.4844C20.7656 16.9687 20.8125 16.4062 20.8125 15.8437C20.7656 15.7031 20.9062 15.6094 21 15.5625H27.4687C27.6562 15.5625 27.75 15.6562 27.7968 15.75L36.9375 41.4844C37.0312 41.7656 36.9375 41.9062 36.7031 41.9062H31.4531C31.2656 41.9531 31.125 41.8125 31.0312 41.625L29.0156 35.7656ZM21.1406 30.6562H27.4687C27.3281 30.1406 27.1406 29.4844 26.9062 28.875C26.6718 28.2187 26.4375 27.4687 26.25 26.7188C26.0156 25.9219 25.7812 25.1719 25.5468 24.4219C25.3125 23.625 25.0781 22.9219 24.8906 22.2188C24.7031 21.5156 24.5156 20.8594 24.3281 20.25H24.2812C24.0468 21.3281 23.7656 22.4062 23.4375 23.4844C23.0625 24.7031 22.6875 25.9219 22.2656 27.1875C21.8906 28.4531 21.5156 29.625 21.1406 30.6562ZM42.5156 20.0156C41.6718 20.0625 40.875 19.7344 40.3125 19.125C39.75 18.5156 39.4218 17.6719 39.4687 16.8281C39.4218 15.9844 39.75 15.1875 40.3593 14.625C40.9687 14.0625 41.7656 13.7344 42.5625 13.7344C43.5468 13.7344 44.2968 14.0156 44.8593 14.625C45.4218 15.2344 45.7031 16.0313 45.7031 16.8281C45.75 17.6719 45.4218 18.5156 44.8125 19.125C44.2031 19.7344 43.3593 20.0625 42.5156 20.0156ZM39.7031 41.7187V22.4531C39.7031 22.2188 39.7968 22.125 40.0312 22.125H45C45.2343 22.125 45.3281 22.2656 45.3281 22.4531V41.7187C45.3281 42 45.2343 42.1406 45 42.1406H40.0781C39.8437 42.0938 39.7031 41.9531 39.7031 41.7187Z" fill="#FF9A00"/>
</g>
<defs>
<clipPath id="clip0_354_33253">
<rect width="60" height="60" fill="white"/>
</clipPath>
</defs>
</svg>
