<svg width="60" height="60" viewBox="0 0 60 60" fill="none" xmlns="http://www.w3.org/2000/svg">
<g clip-path="url(#clip0_354_33068)">
<path d="M0.659912 0.660034H59.3399V59.3405H0.659912V0.660034Z" fill="#F0DB4F"/>
<path d="M54.5376 45.345C54.1078 42.668 52.3621 40.4194 47.1914 38.3227C45.3951 37.4972 43.3926 36.9061 42.7959 35.5449C42.584 34.7527 42.5559 34.3064 42.69 33.8269C43.0748 32.2707 44.9325 31.7855 46.4048 32.2318C47.3531 32.5496 48.2507 33.2803 48.7921 34.4461C51.3243 32.8064 51.3192 32.8172 53.0873 31.6903C52.44 30.6868 52.0945 30.2236 51.6707 29.7943C50.1478 28.0932 48.0726 27.2171 44.7539 27.2841L43.0251 27.5077C41.3685 27.9263 39.7898 28.7958 38.864 29.9616C36.0862 33.1135 36.8784 38.6297 40.2585 40.8999C43.5885 43.3993 48.4804 43.9678 49.1053 46.305C49.7132 49.1663 47.0025 50.0925 44.3081 49.7635C42.3225 49.3505 41.2181 48.3413 40.0242 46.5061C37.8267 47.7778 37.8267 47.7778 35.5673 49.0772C36.1031 50.2486 36.666 50.7788 37.5642 51.7936C41.8148 56.1052 52.4517 55.8933 54.3595 49.3674C54.4368 49.1433 54.9506 47.6489 54.5376 45.345ZM32.5603 27.6296H27.0717L27.0492 41.8196C27.0492 44.8374 27.2053 47.6039 26.7145 48.4519C25.9115 50.1197 23.8307 49.913 22.8825 49.5896C21.9173 49.1152 21.4265 48.4407 20.8579 47.4872C20.7018 47.2135 20.5846 47.0016 20.5453 46.9852L16.0828 49.718C16.8248 51.241 17.9179 52.5628 19.3181 53.4216C21.4096 54.6769 24.2207 55.0618 27.1607 54.3868C29.0742 53.8294 30.7251 52.6749 31.5895 50.9175C32.8392 48.6136 32.571 45.825 32.5598 42.7407C32.5879 37.7086 32.5603 32.6775 32.5603 27.6296Z" fill="#323330"/>
</g>
<defs>
<clipPath id="clip0_354_33068">
<rect width="60" height="60" fill="white"/>
</clipPath>
</defs>
</svg>
