<svg width="60" height="60" viewBox="0 0 60 60" fill="none" xmlns="http://www.w3.org/2000/svg">
<g clip-path="url(#clip0_354_33078)">
<path d="M30 60C46.5685 60 60 46.5685 60 30C60 13.4315 46.5685 0 30 0C13.4315 0 0 13.4315 0 30C0 46.5685 13.4315 60 30 60Z" fill="black"/>
<path d="M49.8361 52.5066L23.047 18H18V41.9902H22.0378V23.1277L46.6659 54.9483C47.7756 54.2056 48.8347 53.3899 49.8361 52.5066Z" fill="url(#paint0_linear_354_33078)"/>
<path d="M38.3335 18H42.3333V42H38.3335V18Z" fill="url(#paint1_linear_354_33078)"/>
</g>
<defs>
<linearGradient id="paint0_linear_354_33078" x1="36.3333" y1="38.8333" x2="48.1666" y2="53.4999" gradientUnits="userSpaceOnUse">
<stop stop-color="white"/>
<stop offset="1" stop-color="white" stop-opacity="0"/>
</linearGradient>
<linearGradient id="paint1_linear_354_33078" x1="40.3333" y1="18" x2="40.2663" y2="35.6249" gradientUnits="userSpaceOnUse">
<stop stop-color="white"/>
<stop offset="1" stop-color="white" stop-opacity="0"/>
</linearGradient>
<clipPath id="clip0_354_33078">
<rect width="60" height="60" fill="white"/>
</clipPath>
</defs>
</svg>
