<svg width="60" height="60" viewBox="0 0 60 60" fill="none" xmlns="http://www.w3.org/2000/svg">
<g clip-path="url(#clip0_354_33249)">
<path d="M10.6252 0.75H49.3748C55.2502 0.75 60 5.49984 60 11.3752V48.6248C60 54.5002 55.2502 59.25 49.3748 59.25H10.6252C4.74984 59.25 0 54.5002 0 48.6248V11.3752C0 5.49984 4.74984 0.75 10.6252 0.75Z" fill="#001E36"/>
<path d="M21.5002 15.6249C20.7502 15.6249 20.0002 15.6249 19.2253 15.6502C18.45 15.675 17.7248 15.675 17.0498 15.7003C16.3748 15.7252 15.75 15.7252 15.15 15.75C14.5748 15.7749 14.175 15.7749 13.7498 15.7749C13.575 15.7749 13.5 15.8747 13.5 16.05V41.775C13.5 42 13.5998 42.1003 13.8 42.1003H18.6502C18.825 42.075 18.9502 41.925 18.9248 41.7502V33.7252C19.3997 33.7252 19.7498 33.7252 20.0002 33.75C20.25 33.7749 20.6498 33.7749 21.2498 33.7749C23.3002 33.7749 25.1752 33.5499 26.8748 32.925C28.5 32.325 29.9002 31.275 30.9 29.8749C31.8998 28.4752 32.4 26.7 32.4 24.5499C32.4 23.4249 32.2003 22.35 31.8253 21.3C31.4282 20.2302 30.8057 19.2582 30 18.45C29.0493 17.5264 27.9049 16.826 26.6498 16.3997C25.2497 15.8747 23.55 15.6249 21.5002 15.6249ZM22.058 20.5491C22.9486 20.566 23.8158 20.7216 24.6248 21.0497C25.35 21.3249 25.95 21.825 26.3752 22.4747C26.7744 23.1469 26.9739 23.9189 26.9503 24.7003C26.9503 25.8 26.7 26.6503 26.175 27.2752C25.6247 27.9 24.9248 28.3753 24.1252 28.6003C23.1998 28.9003 22.2248 29.0499 21.2498 29.0499H19.9247C19.6247 29.0499 19.3003 29.025 18.9502 29.0002V20.6002C19.125 20.5749 19.4752 20.55 19.9753 20.5753C20.4502 20.55 21.0248 20.55 21.675 20.55C21.803 20.5468 21.9309 20.5463 22.058 20.5491ZM43.0252 21.8255C41.25 21.8255 39.7748 22.1002 38.6002 22.7002C37.5253 23.2003 36.6 24 35.9752 24.9999C35.4253 25.9252 35.1248 26.9499 35.1248 28.0252C35.1034 28.9096 35.301 29.7856 35.7 30.5752C36.1677 31.4159 36.8168 32.1418 37.6003 32.7C38.7001 33.4521 39.8935 34.0572 41.1502 34.5C42.375 34.9749 43.2 35.3499 43.6003 35.6747C44.0002 36 44.2003 36.3249 44.2003 36.675C44.2003 37.125 43.9252 37.5502 43.5253 37.725C43.0753 37.95 42.4003 38.0752 41.4502 38.0752C40.4503 38.0752 39.45 37.95 38.4998 37.7002C37.4089 37.4563 36.363 37.043 35.4 36.4753C35.325 36.4252 35.25 36.4003 35.175 36.4505C35.1 36.5002 35.0752 36.6 35.0752 36.675V41.025C35.0503 41.2252 35.175 41.4 35.3503 41.4999C36.161 41.8787 37.0185 42.1478 37.9003 42.3C39.0253 42.525 40.1498 42.6249 41.2997 42.6249C43.0997 42.6249 44.6002 42.3502 45.825 41.8252C46.95 41.3752 47.925 40.6003 48.6248 39.6C49.28 38.6165 49.6201 37.4568 49.5998 36.2752C49.6243 35.3826 49.4268 34.4979 49.0252 33.7003C48.5498 32.85 47.8748 32.1502 47.0498 31.6252C45.8429 30.8674 44.5506 30.2547 43.2 29.7999C42.5968 29.5503 42.0045 29.2751 41.4248 28.9749C41.1 28.8 40.8 28.575 40.575 28.2999C40.425 28.0997 40.3252 27.8752 40.3252 27.6502C40.3252 27.4252 40.4002 27.1753 40.5248 26.9752C40.7002 26.7253 40.9748 26.55 41.2997 26.475C41.775 26.3503 42.3 26.2749 42.7997 26.2997C43.7498 26.2997 44.6747 26.4249 45.6 26.625C46.4503 26.7999 47.25 27.075 48 27.4753C48.0998 27.525 48.225 27.525 48.45 27.4753C48.4892 27.4465 48.5209 27.4088 48.5427 27.3653C48.5645 27.3217 48.5756 27.2737 48.5752 27.225V23.1502C48.5752 23.0499 48.5498 22.95 48.525 22.8502C48.4748 22.7503 48.375 22.65 48.2752 22.6252C47.5857 22.3432 46.8632 22.1499 46.125 22.05C45.0985 21.9005 44.0625 21.8258 43.0252 21.8255Z" fill="#31A8FF"/>
</g>
<defs>
<clipPath id="clip0_354_33249">
<rect width="60" height="60" fill="white"/>
</clipPath>
</defs>
</svg>
