<svg width="60" height="60" viewBox="0 0 60 60" fill="none" xmlns="http://www.w3.org/2000/svg">
<g clip-path="url(#clip0_354_33244)">
<path d="M34.9305 59.0025C33.3991 60.9324 30.288 59.8753 30.2538 57.4102L29.7119 21.3605H53.9533C58.3432 21.3605 60.791 26.4309 58.061 29.8678L34.9305 59.0025Z" fill="url(#paint0_linear_354_33244)"/>
<path d="M34.9305 59.0025C33.3991 60.9324 30.288 59.8753 30.2538 57.4102L29.7119 21.3605H53.9533C58.3432 21.3605 60.791 26.4309 58.061 29.8678L34.9305 59.0025Z" fill="url(#paint1_linear_354_33244)" fill-opacity="0.2"/>
<path d="M25.0708 0.997549C26.6022 -0.932295 29.7137 0.124736 29.7475 2.58942L29.9856 38.6396H6.04796C1.65812 38.6396 -0.789696 33.5691 1.93984 30.1322L25.0708 0.997549Z" fill="#3ECF8E"/>
</g>
<defs>
<linearGradient id="paint0_linear_354_33244" x1="29.7141" y1="29.3561" x2="51.2579" y2="38.3914" gradientUnits="userSpaceOnUse">
<stop stop-color="#249361"/>
<stop offset="1" stop-color="#3ECF8E"/>
</linearGradient>
<linearGradient id="paint1_linear_354_33244" x1="20.1625" y1="16.2783" x2="29.9875" y2="34.7741" gradientUnits="userSpaceOnUse">
<stop/>
<stop offset="1" stop-opacity="0"/>
</linearGradient>
<clipPath id="clip0_354_33244">
<rect width="60" height="60" fill="white"/>
</clipPath>
</defs>
</svg>
