<?xml version="1.0" encoding="UTF-8" ?>
<svg version="1.1" width="17" height="19" xmlns="http://www.w3.org/2000/svg" shape-rendering="crispEdges">
<rect x="2" y="0" width="12" height="1" fill="#7794E3" />
<rect x="14" y="0" width="1" height="2" fill="#3B5AB0" />
<rect x="1" y="1" width="1" height="1" fill="#7794E3" />
<rect x="2" y="1" width="11" height="1" fill="#809FF4" />
<rect x="13" y="1" width="1" height="1" fill="#3B5AB0" />
<rect x="15" y="1" width="1" height="16" fill="#3B5AB0" />
<rect x="0" y="2" width="1" height="15" fill="#7794E3" />
<rect x="1" y="2" width="1" height="15" fill="#87A4F4" />
<rect x="2" y="2" width="13" height="3" fill="#161617" />
<rect x="16" y="2" width="1" height="15" fill="#3B5AB0" />
<rect x="2" y="5" width="7" height="2" fill="#161617" />
<rect x="9" y="5" width="1" height="3" fill="#6285E3" />
<rect x="10" y="5" width="5" height="1" fill="#161617" />
<rect x="10" y="6" width="1" height="1" fill="#6285E3" />
<rect x="11" y="6" width="4" height="1" fill="#161617" />
<rect x="2" y="7" width="4" height="1" fill="#161617" />
<rect x="6" y="7" width="3" height="2" fill="#6285E3" />
<rect x="10" y="7" width="2" height="4" fill="#3B5AB0" />
<rect x="12" y="7" width="3" height="1" fill="#161617" />
<rect x="2" y="8" width="3" height="1" fill="#161617" />
<rect x="5" y="8" width="1" height="4" fill="#6285E3" />
<rect x="9" y="8" width="1" height="5" fill="#3B5AB0" />
<rect x="12" y="8" width="1" height="2" fill="#3B5AB0" />
<rect x="13" y="8" width="2" height="9" fill="#161617" />
<rect x="2" y="9" width="2" height="8" fill="#161617" />
<rect x="4" y="9" width="1" height="4" fill="#6285E3" />
<rect x="6" y="9" width="2" height="1" fill="#6285E3" />
<rect x="8" y="9" width="1" height="2" fill="#3B5AB0" />
<rect x="6" y="10" width="1" height="1" fill="#6285E3" />
<rect x="7" y="10" width="1" height="1" fill="#3B5AB0" />
<rect x="12" y="10" width="1" height="7" fill="#161617" />
<rect x="6" y="11" width="1" height="4" fill="#3B5AB0" />
<rect x="7" y="11" width="2" height="3" fill="#161617" />
<rect x="10" y="11" width="1" height="1" fill="#3B5AB0" />
<rect x="11" y="11" width="1" height="6" fill="#161617" />
<rect x="5" y="12" width="1" height="3" fill="#3B5AB0" />
<rect x="10" y="12" width="1" height="5" fill="#161617" />
<rect x="4" y="13" width="1" height="1" fill="#3B5AB0" />
<rect x="9" y="13" width="1" height="4" fill="#161617" />
<rect x="4" y="14" width="1" height="3" fill="#161617" />
<rect x="7" y="14" width="1" height="1" fill="#3B5AB0" />
<rect x="8" y="14" width="1" height="3" fill="#161617" />
<rect x="5" y="15" width="3" height="2" fill="#161617" />
<rect x="1" y="17" width="15" height="1" fill="#4969C1" />
<rect x="2" y="18" width="13" height="1" fill="#4969C1" />
</svg>