<?xml version="1.0" encoding="UTF-8" ?>
<svg version="1.1" width="17" height="19" xmlns="http://www.w3.org/2000/svg" shape-rendering="crispEdges">
<rect x="2" y="0" width="11" height="1" fill="#F9AC47" />
<rect x="13" y="0" width="2" height="2" fill="#C1781A" />
<rect x="1" y="1" width="1" height="1" fill="#F9AC47" />
<rect x="2" y="1" width="10" height="1" fill="#E38C1C" />
<rect x="12" y="1" width="1" height="1" fill="#C1781A" />
<rect x="15" y="1" width="1" height="4" fill="#C1781A" />
<rect x="0" y="2" width="1" height="15" fill="#F9AC47" />
<rect x="1" y="2" width="1" height="15" fill="#E38C1C" />
<rect x="2" y="2" width="10" height="1" fill="#161617" />
<rect x="12" y="2" width="3" height="6" fill="#1C1C1C" />
<rect x="16" y="2" width="1" height="9" fill="#C1781A" />
<rect x="2" y="3" width="9" height="1" fill="#161617" />
<rect x="11" y="3" width="1" height="5" fill="#1C1C1C" />
<rect x="2" y="4" width="8" height="1" fill="#161617" />
<rect x="10" y="4" width="1" height="4" fill="#1C1C1C" />
<rect x="2" y="5" width="5" height="3" fill="#161617" />
<rect x="7" y="5" width="3" height="1" fill="#F99614" />
<rect x="15" y="5" width="1" height="8" fill="#B56F14" />
<rect x="7" y="6" width="2" height="1" fill="#F99614" />
<rect x="9" y="6" width="1" height="5" fill="#FFA126" />
<rect x="7" y="7" width="1" height="1" fill="#F99614" />
<rect x="8" y="7" width="1" height="5" fill="#FFA126" />
<rect x="2" y="8" width="2" height="6" fill="#161617" />
<rect x="4" y="8" width="3" height="1" fill="#F99614" />
<rect x="7" y="8" width="1" height="5" fill="#FFA126" />
<rect x="10" y="8" width="2" height="1" fill="#FFA126" />
<rect x="12" y="8" width="1" height="3" fill="#F99614" />
<rect x="13" y="8" width="2" height="9" fill="#1C1C1C" />
<rect x="4" y="9" width="2" height="1" fill="#F99614" />
<rect x="6" y="9" width="1" height="2" fill="#FFA126" />
<rect x="10" y="9" width="1" height="1" fill="#FFA126" />
<rect x="11" y="9" width="1" height="2" fill="#F99614" />
<rect x="4" y="10" width="1" height="1" fill="#F99614" />
<rect x="5" y="10" width="1" height="1" fill="#FFA126" />
<rect x="10" y="10" width="1" height="1" fill="#F99614" />
<rect x="4" y="11" width="2" height="1" fill="#161617" />
<rect x="6" y="11" width="1" height="6" fill="#1C1C1C" />
<rect x="9" y="11" width="1" height="3" fill="#F99614" />
<rect x="10" y="11" width="3" height="6" fill="#1C1C1C" />
<rect x="16" y="11" width="1" height="6" fill="#B56F14" />
<rect x="4" y="12" width="1" height="1" fill="#161617" />
<rect x="5" y="12" width="1" height="5" fill="#1C1C1C" />
<rect x="8" y="12" width="1" height="2" fill="#F99614" />
<rect x="4" y="13" width="1" height="4" fill="#1C1C1C" />
<rect x="7" y="13" width="1" height="1" fill="#F99614" />
<rect x="15" y="13" width="1" height="5" fill="#C1781A" />
<rect x="2" y="14" width="1" height="1" fill="#161617" />
<rect x="3" y="14" width="1" height="3" fill="#1C1C1C" />
<rect x="7" y="14" width="3" height="3" fill="#1C1C1C" />
<rect x="2" y="15" width="1" height="2" fill="#1C1C1C" />
<rect x="1" y="17" width="1" height="1" fill="#C1781A" />
<rect x="2" y="17" width="13" height="1" fill="#DD8B21" />
<rect x="2" y="18" width="1" height="1" fill="#CC801C" />
<rect x="3" y="18" width="11" height="1" fill="#BB7417" />
<rect x="14" y="18" width="1" height="1" fill="#CC801C" />
</svg>