<?xml version="1.0" encoding="UTF-8" ?>
<svg version="1.1" width="114" height="26" xmlns="http://www.w3.org/2000/svg" shape-rendering="crispEdges">
<rect x="2" y="0" width="107" height="2" fill="#A56FF9" />
<rect x="1" y="1" width="1" height="21" fill="#A56FF9" />
<rect x="109" y="1" width="1" height="21" fill="#A56FF9" />
<rect x="0" y="2" width="1" height="19" fill="#A56FF9" />
<rect x="2" y="2" width="2" height="1" fill="#A56FF9" />
<rect x="4" y="2" width="14" height="2" fill="#22180F" />
<rect x="18" y="2" width="91" height="1" fill="#A56FF9" />
<rect x="110" y="2" width="1" height="19" fill="#A56FF9" />
<rect x="2" y="3" width="1" height="1" fill="#A56FF9" />
<rect x="3" y="3" width="1" height="17" fill="#22180F" />
<rect x="18" y="3" width="1" height="17" fill="#22180F" />
<rect x="19" y="3" width="90" height="1" fill="#A56FF9" />
<rect x="111" y="3" width="1" height="23" fill="#E5D6FF" opacity="0.525490" />
<rect x="2" y="4" width="1" height="15" fill="#22180F" />
<rect x="4" y="4" width="2" height="1" fill="#22180F" />
<rect x="6" y="4" width="11" height="1" fill="#663C29" />
<rect x="17" y="4" width="1" height="1" fill="#22180F" />
<rect x="19" y="4" width="1" height="15" fill="#22180F" />
<rect x="20" y="4" width="89" height="19" fill="#A56FF9" />
<rect x="112" y="4" width="1" height="21" fill="#E5D6FF" opacity="0.525490" />
<rect x="4" y="5" width="1" height="1" fill="#22180F" />
<rect x="5" y="5" width="1" height="1" fill="#663C29" />
<rect x="6" y="5" width="11" height="10" fill="#8F563B" />
<rect x="17" y="5" width="1" height="13" fill="#663C29" />
<rect x="113" y="5" width="1" height="19" fill="#E5D6FF" opacity="0.525490" />
<rect x="4" y="6" width="1" height="11" fill="#663C29" />
<rect x="5" y="6" width="1" height="9" fill="#8F563B" />
<rect x="5" y="15" width="1" height="1" fill="#FFFFFF" />
<rect x="6" y="15" width="5" height="1" fill="#F4F4F4" />
<rect x="11" y="15" width="1" height="1" fill="#FFFFFF" />
<rect x="12" y="15" width="2" height="1" fill="#F4F4F4" />
<rect x="14" y="15" width="3" height="1" fill="#FFFFFF" />
<rect x="5" y="16" width="1" height="2" fill="#D2D2D2" />
<rect x="6" y="16" width="1" height="2" fill="#882727" />
<rect x="7" y="16" width="4" height="1" fill="#992B2B" />
<rect x="11" y="16" width="1" height="2" fill="#D2D2D2" />
<rect x="12" y="16" width="1" height="1" fill="#FFFFFF" />
<rect x="13" y="16" width="2" height="1" fill="#F4F4F4" />
<rect x="15" y="16" width="2" height="1" fill="#FFFFFF" />
<rect x="4" y="17" width="1" height="4" fill="#22180F" />
<rect x="7" y="17" width="4" height="2" fill="#AC3232" />
<rect x="12" y="17" width="5" height="1" fill="#D2D2D2" />
<rect x="5" y="18" width="1" height="3" fill="#22180F" />
<rect x="6" y="18" width="1" height="1" fill="#992B2B" />
<rect x="11" y="18" width="6" height="1" fill="#663C29" />
<rect x="17" y="18" width="1" height="3" fill="#22180F" />
<rect x="2" y="19" width="1" height="4" fill="#A56FF9" />
<rect x="6" y="19" width="1" height="2" fill="#22180F" />
<rect x="7" y="19" width="1" height="1" fill="#992B2B" />
<rect x="8" y="19" width="1" height="2" fill="#22180F" />
<rect x="9" y="19" width="2" height="1" fill="#AC3232" />
<rect x="11" y="19" width="6" height="2" fill="#22180F" />
<rect x="19" y="19" width="1" height="4" fill="#A56FF9" />
<rect x="3" y="20" width="1" height="3" fill="#A56FF9" />
<rect x="7" y="20" width="1" height="1" fill="#22180F" />
<rect x="9" y="20" width="2" height="1" fill="#22180F" />
<rect x="18" y="20" width="1" height="3" fill="#A56FF9" />
<rect x="4" y="21" width="14" height="2" fill="#A56FF9" />
<rect x="110" y="21" width="1" height="5" fill="#E5D6FF" opacity="0.525490" />
<rect x="109" y="22" width="1" height="4" fill="#E5D6FF" opacity="0.525490" />
<rect x="3" y="23" width="106" height="1" fill="#E5D6FF" opacity="0.525490" />
<rect x="4" y="24" width="105" height="1" fill="#E5D6FF" opacity="0.525490" />
<rect x="5" y="25" width="104" height="1" fill="#E5D6FF" opacity="0.525490" />
</svg>